PathFileType	4	(X/Y/Z)	C:\Data\4407\4407cd03.trc
DataRate	CameraRate	NumFrames	NumMarkers	Units	OrigDataRate	OrigDataStartFrame	OrigNumFrames
200.00	200.00	      8	29	mm	200.00	501	      2000
Frame#	Time	Offset			RShoulder			RUpperArm			RElbow			RForearm			RWrist			LShoulder			LUpperArm			LElbow			LForearm			LWrist			LPSIS			RPSIS			RASIS			RThigh			RKnee			RShank			RAnkle			RHeel			RLat5			RToe			LASIS			LThigh			LKnee			LShank			LAnkle			LHeel			LLat5			LToe			
        X1	Y1	Z1	X2	Y2	Z2	X3	Y3	Z3	X4	Y4	Z4	X5	Y5	Z5	X6	Y6	Z6	X7	Y7	Z7	X8	Y8	Z8	X9	Y9	Z9	X10	Y10	Z10	X11	Y11	Z11	X12	Y12	Z12	X13	Y13	Z13	X14	Y14	Z14	X15	Y15	Z15	X16	Y16	Z16	X17	Y17	Z17	X18	Y18	Z18	X19	Y19	Z19	X20	Y20	Z20	X21	Y21	Z21	X22	Y22	Z22	X23	Y23	Z23	X24	Y24	Z24	X25	Y25	Z25	X26	Y26	Z26	X27	Y27	Z27	X28	Y28	Z28	X29	Y29	Z29	

501	2.500	324.60919	-144.59514	1430.32349	465.93216	-55.46914	1559.33337	473.35413	-206.14616	1439.73743	551.87433	-251.00580	1298.53137	506.20090	-148.76064	1170.72827	544.13495	-17.81380	1181.56384	141.98412	40.83408	1566.68030	42.32771	-49.34018	1388.01245	-31.77370	-0.46042	1281.89490	90.52402	99.06406	1234.01221	172.49016	189.99390	1332.19470	252.37100	-145.41196	1060.28247	302.04504	-147.51677	1056.38403	408.00983	53.53794	1048.22156	366.01505	143.63524	763.55536	422.53766	131.13431	560.13977	380.66824	172.24361	489.85565	369.22913	125.81853	135.29875	309.59213	74.98336	121.05174	401.02304	260.02548	59.86277	298.24457	282.10556	80.10673	163.06126	67.04766	1016.32141	203.17767	42.77551	674.64276	151.21622	-70.32063	523.27197	202.13440	-113.45788	450.80273	219.96889	-456.96451	352.40005	266.39694	-479.85492	409.68704	226.86363	-488.88489	191.64706	335.83026	-472.08630	206.06436	
502	2.505	325.43765	-144.95694	1427.16675	466.87158	-55.28795	1555.40076	475.57477	-205.41121	1434.27454	553.70551	-248.05746	1292.23767	508.34998	-144.97041	1165.05164	545.47021	-13.65648	1177.42456	142.62971	40.64888	1562.93896	43.43338	-51.90157	1385.28235	-30.79561	-4.15077	1278.71106	90.56573	95.17917	1227.66699	173.17355	189.01683	1322.92126	251.94147	-146.06325	1057.07922	301.48639	-147.81541	1052.46533	408.95383	52.94896	1046.21387	365.63724	144.15750	762.69983	422.52716	128.56155	556.81470	380.71838	169.06392	485.14417	368.14984	116.24062	131.61275	308.38675	65.01534	119.00154	399.27194	249.04659	58.01715	296.41956	271.07278	72.27987	163.87808	67.26933	1013.39325	203.25766	47.75936	672.01984	150.23474	-62.67510	518.85907	201.04613	-106.66690	446.68582	220.11250	-453.21655	357.46359	267.25052	-474.62506	414.86270	226.48903	-488.15045	197.12709	335.15311	-470.18185	210.81189	
503	2.510	326.13843	-144.86720	1423.76477	467.80838	-55.26159	1551.12146	477.85513	-204.63249	1428.38281	555.70422	-244.77838	1285.53894	510.71149	-140.72879	1159.02515	547.12225	-9.41814	1173.11743	143.12086	40.46156	1558.94824	44.57072	-54.37785	1382.32983	-29.74607	-8.32236	1275.34229	90.45699	90.98618	1220.91333	173.48190	187.45349	1313.06372	250.71663	-145.49789	1050.22461	301.16577	-148.61641	1049.37097	409.91263	52.38961	1043.72180	365.44846	145.03427	761.50671	422.57986	125.95924	553.03094	381.08990	165.76178	480.16165	366.69684	105.63654	129.76291	305.98416	54.54490	117.70995	395.33975	238.08049	58.29444	291.91064	258.77603	63.29760	164.93645	67.65977	1010.23029	203.00789	53.58889	669.62268	149.08354	-54.76529	514.36279	199.97771	-100.21349	442.27942	220.31171	-448.94077	362.36639	267.74442	-468.91147	419.86383	225.56160	-485.99078	202.65889	334.10312	-467.59464	215.39409	
504	2.515	326.94290	-145.22084	1420.10754	468.83743	-55.15372	1546.64368	480.28165	-203.76117	1422.04395	557.68640	-241.38292	1278.59094	512.94232	-136.36264	1152.79822	549.77563	-4.46708	1169.74951	143.68414	40.11315	1554.73181	45.78026	-56.93135	1379.11377	-28.72718	-12.51484	1271.70117	90.26556	87.00174	1213.75256	173.44475	186.10167	1302.98193	250.10483	-145.55157	1045.09094	300.96667	-149.53804	1046.48022	410.84894	52.04433	1040.95642	364.82828	145.62685	759.54376	422.99173	123.40137	549.04510	381.79547	162.48277	474.48938	365.28510	94.28130	128.87224	305.46832	42.86354	115.00301	392.64935	226.87590	58.63401	287.12970	246.74167	59.23216	165.75720	67.86047	1006.95062	201.04968	57.80380	664.28412	148.03000	-47.10800	509.64047	198.69582	-93.36179	437.91293	220.27292	-444.13168	367.15027	268.43359	-462.86111	424.47202	225.04909	-486.31555	208.40256	333.07074	-464.50198	219.38225	
505	2.520	327.66492	-145.50653	1416.15320	469.88828	-55.05251	1541.88782	482.64182	-202.81110	1415.42993	559.98254	-237.87950	1271.34290	515.16925	-131.87199	1146.53259	550.24286	-0.43855	1163.53833	144.15414	39.75714	1550.26074	47.03407	-59.77405	1375.64233	-27.56409	-16.81118	1267.88599	89.98991	83.35217	1206.47559	173.28145	184.55551	1292.47693	249.55894	-145.79839	1040.03296	299.63724	-149.00330	1039.48047	411.94034	51.64248	1038.00244	364.46637	146.72310	756.98395	423.33932	120.59658	544.84155	383.17001	158.85947	469.45590	359.16870	87.66561	126.81476	305.84418	28.31005	109.57520	391.94254	215.27383	58.76308	284.31519	233.21698	59.62453	166.66405	68.02383	1003.32263	200.34619	62.72156	660.78607	146.67671	-39.39513	504.97580	197.28404	-86.28619	433.53476	220.27667	-438.69507	371.73358	269.04004	-456.45389	428.69882	223.57024	-483.38501	213.32799	331.62323	-461.04156	222.94737	
506	2.525	328.49960	-145.85547	1411.98218	471.16599	-54.72348	1536.85156	485.29694	-201.80342	1408.41565	562.29327	-234.25903	1263.77393	516.06323	-127.75385	1140.07825	551.79388	4.40578	1158.49597	144.53297	39.33127	1545.55029	48.39978	-62.72944	1371.83423	-26.48503	-21.58095	1263.78247	89.85596	77.59663	1199.35938	172.90353	182.75774	1281.57080	249.24359	-146.08490	1035.00415	299.23788	-149.50354	1035.03674	413.01453	51.16797	1034.78223	364.40494	147.48647	753.51208	423.45084	118.06091	540.03424	384.05453	155.47411	464.05618	356.89969	71.84186	126.57845	303.85089	13.02914	103.50321	390.54791	202.74673	59.03472	283.12589	219.39925	58.27692	167.48274	68.03328	999.36755	199.27802	67.91697	657.28522	145.40475	-31.46441	500.31992	195.74475	-79.57132	429.43192	219.90991	-432.45831	375.53256	270.41016	-449.75677	432.64291	221.88374	-479.67517	218.28537	329.76190	-457.10999	226.26355	
507	2.530	329.53922	-146.31229	1407.46375	472.25485	-54.39425	1531.63232	487.79398	-200.68216	1401.14380	564.66925	-230.25287	1256.07898	519.12634	-122.10668	1130.85522	553.45111	9.42294	1153.37488	144.81859	38.87418	1540.80286	49.74021	-65.90113	1367.82410	-25.35671	-26.19083	1259.50403	89.38863	72.72342	1191.55078	172.61708	180.73428	1270.26843	249.01015	-146.41519	1029.92932	298.98615	-150.07480	1030.28809	413.91608	50.50930	1030.95190	364.78433	148.33820	748.71057	423.33295	115.58876	535.06940	383.89066	152.34889	458.36115	353.07065	56.40531	122.64576	300.81140	-1.02856	98.32076	389.57611	189.04005	59.08484	282.23407	206.67297	56.70409	168.22578	67.96780	995.27100	198.13554	73.13436	653.64764	144.19772	-23.60707	495.66534	194.21484	-72.10129	425.22086	219.42371	-426.12686	379.66898	270.56418	-442.55273	436.17862	219.60558	-475.42300	222.90535	327.63596	-452.38947	229.11009	
508	2.535	330.31470	-146.69490	1402.73999	473.49756	-53.93377	1526.17419	490.68088	-199.45255	1393.71167	567.29834	-226.25537	1248.09949	522.40601	-116.82159	1124.89453	555.00317	14.69485	1148.03467	145.02350	38.28439	1535.82056	51.11114	-69.08292	1363.63916	-24.17493	-31.09823	1255.14917	88.61097	67.85026	1183.67053	171.77693	178.72569	1258.69983	248.97972	-146.87978	1024.74817	299.01382	-150.82434	1025.57715	414.95963	49.82875	1026.63989	365.38760	147.53992	742.77618	422.66669	113.46370	529.88947	382.02936	149.42755	452.69324	350.62314	42.01096	119.15389	298.43286	-14.99822	93.98318	388.70288	176.13011	58.97602	281.48221	194.05981	56.28850	169.12262	68.03378	990.72656	197.07675	78.67457	650.10266	143.27121	-15.38029	491.20981	192.48135	-64.55759	420.99915	216.21300	-418.99252	385.40018	270.80927	-434.96518	439.18555	216.93349	-470.14185	227.22597	324.99991	-447.46182	231.83743	
